<?xml version="1.0" encoding="UTF-8"?>
<svg width="230.5mm" height="75.39mm" version="1.1" viewBox="0 0 230.5 75.39" xmlns="http://www.w3.org/2000/svg" xmlns:cc="http://creativecommons.org/ns#" xmlns:dc="http://purl.org/dc/elements/1.1/" xmlns:rdf="http://www.w3.org/1999/02/22-rdf-syntax-ns#">
 <metadata>
  <rdf:RDF>
   <cc:Work rdf:about="">
    <dc:format>image/svg+xml</dc:format>
    <dc:type rdf:resource="http://purl.org/dc/dcmitype/StillImage"/>
   </cc:Work>
  </rdf:RDF>
 </metadata>
 <g transform="translate(7.721 -4.319)" fill="#3e4349">
  <g stroke-width=".3533" aria-label="luster">
   <path d="m64.83 66.09h-2.981v-49.45h2.981z"/>
   <path d="m75.83 32.5h2.981v20.77q0 4.339 2.617 7.353 2.617 3.014 6.392 3.014 3.809 0 6.558-3.014 2.782-3.047 2.782-7.353v-20.77h2.981v20.77q0 5.465-3.544 9.407-3.544 3.908-8.645 3.908-5.068 0-8.612-3.908-3.511-3.941-3.511-9.407z"/>
   <path d="m129.1 38.43-2.749 0.9605q-0.6956-2.219-2.352-3.378-1.656-1.192-3.544-1.192-2.186 0-3.743 1.391-1.524 1.391-1.524 3.776 0 1.259 0.6956 2.285t1.822 1.689q1.126 0.6624 2.55 1.358 1.457 0.6956 2.948 1.292t2.915 1.49q1.457 0.8943 2.583 1.921 1.126 1.027 1.822 2.65 0.6956 1.623 0.6956 3.643 0 4.604-3.279 7.485-3.279 2.848-7.618 2.848-1.888 0-3.61-0.5962-1.722-0.6293-3.18-1.822t-2.484-3.18q-1.027-1.987-1.325-4.538l2.948-0.4306q0.4637 3.776 2.617 5.697 2.186 1.921 5.101 1.921 3.08 0 5.465-2.054 2.385-2.087 2.385-5.333 0-1.789-0.8943-3.147-0.8943-1.391-2.319-2.252-1.391-0.8612-3.113-1.623t-3.445-1.557-3.147-1.722q-1.391-0.9605-2.285-2.484-0.8943-1.557-0.8943-3.544 0-3.71 2.451-5.896 2.484-2.186 5.863-2.186 2.782 0 5.2 1.689 2.418 1.656 3.445 4.836z"/>
   <path d="m143.7 66.09h-2.981v-30.64h-2.948v-2.948h2.948v-7.949h2.981v7.949h9.274l-0.9936 2.948h-8.28z"/>
   <path d="m160.7 46.45h24.41q-0.9274-5.001-4.372-8.247-3.445-3.246-7.883-3.246-4.405 0-7.85 3.246-3.412 3.246-4.306 8.247zm27.66 2.815h-28.12q0 5.929 3.71 10.07t8.777 4.14q3.345 0 6.558-1.789t4.902-4.803l2.617 1.49q-2.02 3.61-5.962 5.929-3.941 2.285-8.115 2.285-4.206 0-7.75-2.352-3.511-2.352-5.531-6.326-1.987-4.008-1.987-8.645 0-4.604 2.02-8.578 2.054-3.975 5.598-6.326 3.577-2.385 7.784-2.385 3.975 0 7.386 2.153 3.445 2.12 5.564 5.73t2.484 7.916z"/>
   <path d="m197.1 32.5h3.18q0.6293 2.186 0.6293 4.438v4.173q0.7618-2.55 3.544-5.299t5.598-3.842l3.312 2.352q-2.915 0-5.829 2.054-2.882 2.054-4.77 5.465-1.855 3.378-1.855 6.989v17.26h-2.981v-29.15q0-2.848-0.828-4.438z"/>
  </g>
  <path d="m16.9 16.58q4.897-2.099 10.28-2.099 5.387 0 10.28 2.099 4.932 2.099 8.465 5.667 3.568 3.568 5.667 8.5 2.099 4.932 2.099 10.35 0 5.422-2.099 10.35-2.099 4.897-5.667 8.465-3.533 3.568-8.465 5.667-4.897 2.099-10.28 2.099-5.387 0-10.28-2.099t-8.43-5.667q-3.533-3.568-5.632-8.465-2.099-4.932-2.099-10.35 0-5.422 2.099-10.35 2.099-4.932 5.632-8.5 3.533-3.568 8.43-5.667zm-13.05 24.52q0 4.757 1.819 9.095 1.854 4.337 4.967 7.486 3.113 3.148 7.451 5.037 4.337 1.854 9.095 1.854 4.792 0 9.13-1.854 4.337-1.889 7.451-5.037 3.113-3.148 4.967-7.486 1.854-4.337 1.854-9.095 0-6.401-3.113-11.79-3.113-5.422-8.535-8.57-5.387-3.148-11.75-3.148-6.366 0-11.75 3.148-5.352 3.148-8.465 8.57-3.113 5.387-3.113 11.79z" stroke-width=".3731"/>
  <g stroke-width=".2923">
   <path transform="matrix(1 0 .6465 .7629 0 0)" d="m6.35 28.62h4.166v23.37h-4.166z"/>
   <path transform="matrix(1 0 .6465 .7629 0 0)" d="m3.678 37.94h4.166v23.37h-4.166z"/>
   <path transform="matrix(1 0 .6465 .7629 0 0)" d="m-9.558 78.61h4.497v12.8h-4.497z"/>
  </g>
 </g>
</svg>
