<?xml version="1.0" encoding="UTF-8"?>
<svg width="78.4mm" height="78.4mm" version="1.1" viewBox="0 0 78.4 78.4" xmlns="http://www.w3.org/2000/svg" xmlns:cc="http://creativecommons.org/ns#" xmlns:dc="http://purl.org/dc/elements/1.1/" xmlns:rdf="http://www.w3.org/1999/02/22-rdf-syntax-ns#">
 <metadata>
  <rdf:RDF>
   <cc:Work rdf:about="">
    <dc:format>image/svg+xml</dc:format>
    <dc:type rdf:resource="http://purl.org/dc/dcmitype/StillImage"/>
   </cc:Work>
  </rdf:RDF>
 </metadata>
 <g transform="translate(-1.394 -.1554)">
  <g fill="#3e4349">
   <path transform="matrix(.2646 0 0 .2646 1.394 .1554)" d="m148 42.05c-13.87 0-27.12 2.702-39.73 8.107-12.61 5.406-23.47 12.7-32.57 21.89-9.1 9.19-16.35 20.14-21.76 32.84-5.406 12.7-8.109 26.04-8.109 40s2.704 27.3 8.109 40c5.406 12.61 12.66 23.52 21.76 32.71 9.1 9.19 19.96 16.49 32.57 21.89 12.61 5.406 25.86 8.107 39.73 8.107 13.87 0 27.12-2.702 39.73-8.107 12.7-5.406 23.61-12.7 32.71-21.89 9.19-9.19 16.49-20.09 21.89-32.71 5.406-12.7 8.109-26.04 8.109-40s-2.704-27.3-8.109-40c-5.406-12.7-12.7-23.65-21.89-32.84-9.1-9.19-20-16.49-32.71-21.89-12.61-5.406-25.86-8.107-39.73-8.107zm0 12.03c16.4 0 31.53 4.054 45.41 12.16 13.96 8.109 24.96 19.14 32.97 33.11 8.018 13.87 12.03 29.06 12.03 45.54 0 12.25-2.387 23.96-7.162 35.14-4.775 11.17-11.17 20.81-19.19 28.92s-17.61 14.6-28.79 19.46c-11.17 4.775-22.93 7.162-35.27 7.162-12.25 0-23.96-2.387-35.14-7.162-11.17-4.865-20.77-11.35-28.79-19.46s-14.42-17.75-19.19-28.92c-4.685-11.17-7.027-22.88-7.027-35.14 0-16.49 4.009-31.67 12.03-45.54 8.018-13.96 18.92-25 32.71-33.11 13.87-8.109 29.01-12.16 45.41-12.16z" stroke-width="1.442"/>
   <g stroke-width=".2988">
    <rect transform="matrix(1 0 .6465 .7629 0 0)" x="22.25" y="24.64" width="4.258" height="23.88"/>
    <rect transform="matrix(1 0 .6465 .7629 0 0)" x="19.52" y="34.17" width="4.258" height="23.88"/>
    <rect transform="matrix(1 0 .6465 .7629 0 0)" x="5.989" y="75.74" width="4.597" height="13.09"/>
   </g>
  </g>
 </g>
</svg>
